<?xml version="1.0" encoding="UTF-8" standalone="no"?>
<!-- Created with Inkscape (http://www.inkscape.org/) -->

<svg
   width="512"
   height="512"
   viewBox="0 0 135.46666 135.46667"
   version="1.1"
   id="svg1"
   xml:space="preserve"
   sodipodi:docname="icon.svg"
   inkscape:version="1.4.2 (ebf0e940, 2025-05-08)"
   xmlns:inkscape="http://www.inkscape.org/namespaces/inkscape"
   xmlns:sodipodi="http://sodipodi.sourceforge.net/DTD/sodipodi-0.dtd"
   xmlns="http://www.w3.org/2000/svg"
   xmlns:svg="http://www.w3.org/2000/svg"><sodipodi:namedview
     id="namedview1"
     pagecolor="#ffffff"
     bordercolor="#999999"
     borderopacity="1"
     inkscape:showpageshadow="2"
     inkscape:pageopacity="0"
     inkscape:pagecheckerboard="0"
     inkscape:deskcolor="#d1d1d1"
     inkscape:document-units="mm"
     inkscape:zoom="0.69915614"
     inkscape:cx="444.1068"
     inkscape:cy="319.67108"
     inkscape:window-width="1464"
     inkscape:window-height="916"
     inkscape:window-x="0"
     inkscape:window-y="38"
     inkscape:window-maximized="1"
     inkscape:current-layer="layer1"
     showguides="true" /><defs
     id="defs1" /><g
     inkscape:label="Layer 1"
     inkscape:groupmode="layer"
     id="layer1"><path
       style="fill:#000000;stroke-width:0.480317"
       d="m 73.391929,109.65417 c 9.33282,-1.47443 17.81753,-6.41729 23.81543,-13.873923 4.671991,-5.80827 7.422781,-12.82955 8.013711,-20.45465 0.22648,-2.92249 0.13806,-5.19605 -0.32398,-8.33037 -0.41022,-2.78285 -1.51651,-6.80295 -2.11752,-7.6948 -0.7835,-1.16263 -1.91202,-1.3156 -3.234411,-0.43843 -0.95061,0.63058 -2.19791,1.82015 -2.19791,2.0962 0,0.11822 0.11442,0.54752 0.25428,0.95402 0.13986,0.4065 0.47775,1.6307 0.75089,2.72043 1.33026,5.30735 1.31629,10.56976 -0.042,15.83348 -1.36302,5.28191 -4.00345,9.99533 -7.8132,13.94721 -5.16679,5.35958 -11.70861,8.577003 -19.20215,9.444093 -2.19177,0.25361 -5.88998,0.19046 -8.00629,-0.13672 -14.08011,-2.17679 -24.80741,-12.863753 -26.80503,-26.704203 -0.61844,-4.28489 -0.42685,-7.98216 0.62405,-12.04294 0.55261,-2.13528 1.06407,-3.49551 2.15748,-5.73772 4.76048,-9.76208 13.7112,-16.15119 24.55237,-17.52571 1.88142,-0.23854 5.67245,-0.27061 7.54093,-0.0638 5.77471,0.63919 11.40612,2.91929 15.92495,6.44785 l 1.05693,0.82531 -1.40601,1.42508 c -1.55554,1.57664 -1.68916,1.88328 -1.11264,2.55353 0.28743,0.33415 0.41725,0.35887 6.38597,1.21648 6.69666,0.9622 6.66636,0.96141 6.98046,0.18212 0.13568,-0.3366 0.0454,-1.22376 -0.64765,-6.36407 -0.44292,-3.28512 -0.80684,-6.01844 -0.8087,-6.07404 -0.01,-0.29706 -0.65704,-0.72495 -1.09626,-0.72495 -0.42074,0 -0.60111,0.1275 -1.75319,1.23923 -0.7063,0.68158 -1.48703,1.42499 -1.73495,1.65202 l -0.45076,0.41277 -1.0107,-0.78034 c -4.33769,-3.34911 -9.3854,-5.85798 -14.29096,-7.10303 -1.49002,-0.37818 -4.22706,-0.88526 -4.77828,-0.88526 -0.30341,0 -0.30509,-0.007 -0.30509,-1.38627 v -1.38626 l 1.8745,-0.0434 c 2.12088,-0.0491 2.53841,-0.18891 2.97671,-0.99656 0.21672,-0.39932 0.23768,-0.68514 0.205,-2.79584 -0.0348,-2.24844 -0.0497,-2.3697 -0.34122,-2.77845 -0.57068,-0.80015 -0.3277,-0.7799 -9.35453,-0.7799 -7.87414,0 -8.22563,0.01 -8.68991,0.24685 -0.91658,0.4676 -0.96748,0.64622 -0.96748,3.39484 v 2.4344 l 0.3879,0.47943 c 0.54722,0.67635 0.98879,0.79448 3.01159,0.80567 l 1.7474,0.01 v 1.33196 c 0,1.27921 -0.0113,1.33429 -0.28593,1.39056 -0.15727,0.0323 -0.85782,0.1492 -1.55678,0.25994 -3.46474,0.54894 -7.51997,1.90449 -10.80214,3.61086 -3.77933,1.96485 -6.22824,3.75994 -9.28993,6.80969 -2.2029,2.19432 -3.33609,3.55385 -4.87622,5.8502 -6.0506,9.02155 -7.78904,20.74523 -4.62436,31.18579 2.53918,8.37698 8.01494,15.67614 15.48634,20.643213 1.58374,1.05289 4.89375,2.73203 7.18824,3.64654 2.41309,0.96177 5.96168,1.85735 8.50662,2.14687 0.66402,0.0756 1.37886,0.16053 1.58855,0.18887 0.20968,0.0283 1.92532,0.0348 3.81252,0.0145 2.70013,-0.0292 3.78329,-0.0926 5.08335,-0.29802 z m -4.64957,-9.64862 c 0.65212,-0.477593 0.77311,-0.940043 0.77311,-2.954973 0,-1.50099 -0.0412,-1.92473 -0.22219,-2.28498 -0.47083,-0.93711 -1.66605,-1.30021 -2.53531,-0.77018 -0.7102,0.43303 -0.80045,0.77465 -0.80045,3.03005 0,1.88942 0.0188,2.04895 0.28848,2.45268 0.5733,0.858183 1.71528,1.099443 2.49636,0.527403 z m -44.49896,-9.943903 c 0.2278,-0.13889 0.52783,-0.43891 0.66671,-0.66672 0.42369,-0.6949 0.33441,-1.18106 -0.46233,-2.51759 -2.93783,-4.92818 -4.28863,-9.98526 -4.07172,-15.24354 0.2008,-4.86744 1.47468,-9.10685 3.96505,-13.19546 1.01506,-1.66649 1.04392,-2.34018 0.13657,-3.18783 -0.45749,-0.42739 -1.50514,-0.50653 -2.0629,-0.15585 -0.82007,0.51563 -2.92378,4.56713 -3.9027,7.51619 -2.56105,7.71525 -1.98254,16.48646 1.56323,23.70114 1.10449,2.24735 1.98408,3.61018 2.46519,3.81953 0.57144,0.24864 1.22444,0.22186 1.7029,-0.0699 z m 88.748501,0.056 c 0.98264,-0.50814 3.30769,-5.17991 4.2974,-8.63481 2.19674,-7.66851 1.46328,-15.93108 -2.03448,-22.91883 -1.22976,-2.45678 -1.65733,-3.13322 -2.18319,-3.45383 -1.22131,-0.74466 -2.90755,0.31159 -2.70178,1.69239 0.0401,0.26868 0.44534,1.10425 0.91498,1.88636 5.15941,8.59212 5.13651,19.30971 -0.0596,27.89986 -0.43348,0.71663 -0.81469,1.51004 -0.8548,1.77917 -0.19961,1.33872 1.37888,2.39227 2.62149,1.74969 z m -84.925571,-7.22247 c 0.52442,-0.52442 0.44862,-1.14056 -0.35355,-2.87381 -2.21577,-4.78757 -2.1678,-10.217 0.13352,-15.10995 0.65402,-1.39054 0.74978,-1.93372 0.42313,-2.40007 -0.23298,-0.33263 -0.8254,-0.66297 -1.18896,-0.66297 -0.54277,0 -1.11669,0.4089 -1.49243,1.06327 -2.36322,4.1158 -2.99795,10.14005 -1.61417,15.32014 0.61584,2.30533 1.61832,4.45789 2.26583,4.86526 0.53599,0.33721 1.38093,0.24383 1.82663,-0.20187 z m 81.239781,0.14445 c 0.79912,-0.52917 1.9202,-3.1903 2.53534,-6.01819 0.38967,-1.79133 0.48635,-5.65155 0.19185,-7.65973 -0.2802,-1.91059 -0.95324,-4.0971 -1.76302,-5.72745 -0.56116,-1.12982 -0.73082,-1.36387 -1.13839,-1.57048 -0.88734,-0.44982 -1.88774,0.0145 -2.0648,0.95824 -0.0676,0.36038 0.0313,0.68908 0.54886,1.82515 1.34448,2.95088 1.74134,4.7507 1.73464,7.86688 -0.007,3.12555 -0.45345,5.13246 -1.71801,7.71836 -0.68399,1.39869 -0.72098,1.5802 -0.43474,2.13373 0.38876,0.75178 1.35894,0.96966 2.10827,0.47349 z m -39.454081,-5.8811 c 0.97337,-0.47622 1.75594,-1.28531 2.24598,-2.32208 0.36632,-0.77502 0.40396,-0.97071 0.4188,-2.17723 l 0.0163,-1.32567 0.55649,-0.51718 c 0.30607,-0.28444 3.34007,-2.96658 6.7422,-5.96031 6.52695,-5.74341 6.58621,-5.80519 6.58621,-6.86632 0,-1.46145 -1.77552,-2.57771 -3.00926,-1.89191 -0.22005,0.12232 -1.78764,1.45194 -3.48356,2.9547 -1.69592,1.50277 -4.70847,4.16724 -6.69456,5.92105 l -3.61108,3.18873 -0.81684,-0.19545 c -0.6712,-0.16059 -0.99122,-0.17031 -1.79495,-0.0545 l -0.97813,0.14091 -4.99332,-4.91338 c -2.74629,-2.70235 -5.16573,-5.03725 -5.3765,-5.18865 -1.08907,-0.78226 -2.76937,-0.32398 -3.35767,0.91578 -0.26663,0.56188 -0.27886,1.6946 -0.0234,2.17587 0.10527,0.19839 2.51124,2.67656 5.34659,5.50702 l 5.15518,5.14632 v 0.76816 c 0,1.97513 0.96894,3.76571 2.44975,4.52708 0.99307,0.51059 1.50011,0.61665 2.72252,0.56946 0.96624,-0.0373 1.29585,-0.10712 1.89934,-0.40237 z m -3.20825,-3.4151 c -1.25059,-1.25058 0.31006,-3.1609 1.82682,-2.23614 0.46575,0.28396 0.66402,0.68851 0.66402,1.35483 0,0.34144 -0.10367,0.55289 -0.43209,0.88131 -0.36881,0.36881 -0.51954,0.43209 -1.02937,0.43209 -0.50983,0 -0.66057,-0.0633 -1.02938,-0.43209 z m -21.78472,0.59075 c 1.27391,-0.64004 1.35822,-2.5098 0.14155,-3.13896 -0.52082,-0.26933 -4.04937,-0.28417 -4.56179,-0.0191 -1.30004,0.67228 -1.29937,2.5373 7.9e-4,3.12754 0.76533,0.34734 3.74757,0.368 4.41912,0.0306 z m 49.94557,0.0175 c 1.33332,-0.53349 1.4837,-2.25271 0.26809,-3.0648 -0.4007,-0.26768 -0.5683,-0.28847 -2.3256,-0.28847 -2.11745,0 -2.47503,0.0986 -2.90297,0.80044 -0.15315,0.25116 -0.24825,0.63616 -0.24855,1.00608 -2.7e-4,0.48934 0.0718,0.68156 0.39369,1.04816 0.51425,0.58569 0.88255,0.67845 2.74859,0.69221 1.15537,0.008 1.68573,-0.0412 2.06675,-0.19362 z m -26.05126,-23.28626 c 0.63899,-0.45835 0.7621,-0.93363 0.7621,-2.94213 0,-1.50099 -0.0412,-1.92472 -0.22219,-2.28498 -0.47445,-0.94434 -1.66576,-1.30035 -2.54913,-0.76178 -0.6976,0.42531 -0.80933,0.89096 -0.76338,3.18133 0.036,1.79401 0.0683,2.04641 0.30349,2.36651 0.58283,0.79344 1.69971,0.99295 2.46911,0.44105 z"
       id="path1-7"
       sodipodi:nodetypes="csssssssssssssssscscssssssssscsssscssscssscsscssssssssssscccsscsssssssssssssssssssssssssssssscsssssssssccssscsscsssssscsscssssscsssccsssssscsccccsssssssssscssss" /></g></svg>
