<?xml version="1.0" encoding="UTF-8" standalone="no"?>
<!-- Created with Inkscape (http://www.inkscape.org/) -->

<svg
   width="108"
   height="108"
   viewBox="0 0 28.574999 28.575001"
   version="1.1"
   id="svg1"
   xml:space="preserve"
   sodipodi:docname="icon.svg"
   inkscape:version="1.4.2 (ebf0e940, 2025-05-08)"
   xmlns:inkscape="http://www.inkscape.org/namespaces/inkscape"
   xmlns:sodipodi="http://sodipodi.sourceforge.net/DTD/sodipodi-0.dtd"
   xmlns="http://www.w3.org/2000/svg"
   xmlns:svg="http://www.w3.org/2000/svg"><sodipodi:namedview
     id="namedview1"
     pagecolor="#ffffff"
     bordercolor="#999999"
     borderopacity="1"
     inkscape:showpageshadow="2"
     inkscape:pageopacity="0"
     inkscape:pagecheckerboard="0"
     inkscape:deskcolor="#d1d1d1"
     inkscape:document-units="px"
     inkscape:zoom="6.4537037"
     inkscape:cx="53.922525"
     inkscape:cy="54"
     inkscape:window-width="1464"
     inkscape:window-height="916"
     inkscape:window-x="0"
     inkscape:window-y="38"
     inkscape:window-maximized="1"
     inkscape:current-layer="layer1"
     showguides="true"><sodipodi:guide
       position="36.707941,23.01875"
       orientation="0,1"
       id="guide1"
       inkscape:locked="false"
       inkscape:label=""
       inkscape:color="rgb(0,134,229)" /><sodipodi:guide
       position="29.896158,5.55625"
       orientation="0,1"
       id="guide2"
       inkscape:locked="false"
       inkscape:label=""
       inkscape:color="rgb(0,134,229)" /><sodipodi:guide
       position="5.55625,23.01875"
       orientation="-1,0"
       id="guide3"
       inkscape:locked="false"
       inkscape:label=""
       inkscape:color="rgb(0,134,229)" /><sodipodi:guide
       position="23.01875,24.885259"
       orientation="-1,0"
       id="guide4"
       inkscape:locked="false"
       inkscape:label=""
       inkscape:color="rgb(0,134,229)" /><sodipodi:guide
       position="8.0354373,19.84375"
       orientation="0,1"
       id="guide5"
       inkscape:locked="false"
       inkscape:label=""
       inkscape:color="rgb(0,134,229)" /><sodipodi:guide
       position="9.9213052,8.73125"
       orientation="0,1"
       id="guide6"
       inkscape:locked="false"
       inkscape:label=""
       inkscape:color="rgb(0,134,229)" /></sodipodi:namedview><defs
     id="defs1" /><g
     inkscape:label="Layer 1"
     inkscape:groupmode="layer"
     id="layer1"><path
       style="fill:#000000;stroke-width:0.0721119"
       d="m 15.137051,19.76509 c 1.401177,-0.221362 2.675024,-0.963455 3.575515,-2.082953 0.701428,-0.87202 1.114415,-1.926156 1.203133,-3.070946 0.034,-0.438766 0.02072,-0.780107 -0.04864,-1.250675 -0.06159,-0.417803 -0.227681,-1.021357 -0.317913,-1.155255 -0.117631,-0.174551 -0.28706,-0.197516 -0.485596,-0.06583 -0.142719,0.09467 -0.329983,0.273267 -0.329983,0.314711 0,0.01775 0.01718,0.0822 0.03817,0.143231 0.02101,0.06103 0.07173,0.244824 0.112734,0.40843 0.199719,0.796817 0.197621,1.586886 -0.0062,2.37715 -0.204636,0.792997 -0.601055,1.500643 -1.17303,2.093957 -0.775712,0.804658 -1.757865,1.287703 -2.882902,1.417884 -0.329061,0.03808 -0.884289,0.02859 -1.20202,-0.02053 -2.113925,-0.326812 -3.7244615,-1.931294 -4.0243729,-4.00922 -0.092849,-0.64331 -0.064084,-1.198398 0.093692,-1.80806 0.082965,-0.320579 0.1597534,-0.524797 0.3239119,-0.861429 0.714711,-1.465624 2.058523,-2.4248498 3.686155,-2.6312124 0.282466,-0.035814 0.85163,-0.040619 1.132152,-0.00955 0.866984,0.095968 1.712452,0.4382861 2.390884,0.9680454 l 0.158681,0.123907 -0.21109,0.213953 c -0.23354,0.236708 -0.2536,0.282745 -0.167045,0.383374 0.04314,0.05017 0.06264,0.05388 0.958753,0.182635 1.005399,0.144459 1.000849,0.144341 1.048008,0.02734 0.02037,-0.05053 0.0068,-0.183729 -0.09724,-0.955467 -0.0665,-0.49321 -0.121135,-0.9035746 -0.121414,-0.9119227 -0.0016,-0.044597 -0.09864,-0.1088399 -0.164587,-0.1088399 -0.06318,0 -0.09025,0.019145 -0.263213,0.1860509 -0.10604,0.1023293 -0.223254,0.2139403 -0.260476,0.2480257 l -0.0677,0.061977 -0.15174,-0.1171562 C 17.232415,9.3538763 16.47458,8.9772086 15.738086,8.7902836 15.514383,8.733508 15.10346,8.6573758 15.020702,8.6573758 c -0.04555,0 -0.04581,-0.00106 -0.04581,-0.2081272 V 8.2411234 l 0.281427,-0.00649 c 0.318417,-0.00738 0.381102,-0.028362 0.446906,-0.1496178 0.03254,-0.059951 0.03569,-0.1028627 0.03077,-0.4197517 -0.0053,-0.3375677 -0.0075,-0.3557732 -0.05123,-0.4171408 -0.08567,-0.1201303 -0.0492,-0.1170899 -1.404437,-0.1170899 -1.182179,0 -1.23495,0.0015 -1.304654,0.037063 -0.137611,0.0702 -0.145252,0.09702 -0.145252,0.5096819 v 0.3654875 l 0.05823,0.071978 c 0.08216,0.1015432 0.148451,0.1192789 0.452143,0.120959 l 0.262345,0.0015 v 0.1999731 c 0,0.1920538 -0.0018,0.2003228 -0.04293,0.208771 -0.02361,0.00485 -0.128789,0.022405 -0.233726,0.039026 -0.520176,0.082415 -1.129006,0.2859295 -1.621773,0.5421144 -0.567402,0.2949914 -0.935067,0.5644959 -1.394733,1.0223689 -0.3307305,0.329443 -0.5008615,0.533556 -0.7320881,0.878316 -0.9084027,1.354444 -1.1694023,3.114572 -0.6942754,4.68206 0.3812185,1.257673 1.2033195,2.353527 2.3250335,3.099257 0.237772,0.158075 0.73472,0.410171 1.079201,0.547471 0.362289,0.144394 0.895053,0.278852 1.277137,0.322319 0.09969,0.01135 0.207014,0.02411 0.238495,0.02836 0.03149,0.0043 0.289058,0.0053 0.572391,0.002 0.405383,-0.0044 0.568003,-0.0139 0.763186,-0.04473 z m -0.69806,-1.448589 c 0.09791,-0.0717 0.116071,-0.141132 0.116071,-0.443644 0,-0.22535 -0.0061,-0.288968 -0.03336,-0.343053 -0.07068,-0.140693 -0.250131,-0.195206 -0.380637,-0.115631 -0.106626,0.06502 -0.120173,0.116301 -0.120173,0.454915 0,0.283667 0.0028,0.307618 0.04331,0.368231 0.08607,0.128843 0.257523,0.165065 0.374789,0.07918 z M 7.7581655,16.823578 c 0.034201,-0.02086 0.079245,-0.06591 0.1000965,-0.100097 C 7.921876,16.619153 7.908464,16.546165 7.788846,16.345504 7.3477767,15.605615 7.1449751,14.846374 7.177541,14.056925 7.207687,13.326154 7.3989411,12.689673 7.7728311,12.075832 7.9252268,11.825634 7.9295597,11.724491 7.7933371,11.59723 7.7246501,11.53306 7.5673637,11.52118 7.4836247,11.57384 7.3605039,11.65126 7.044665,12.259521 6.8976949,12.702277 6.5131935,13.860601 6.6000478,15.177463 7.13239,16.260635 c 0.1658221,0.337404 0.2978784,0.542011 0.3701095,0.573442 0.085793,0.03733 0.1838304,0.03331 0.2556638,-0.01049 z m 13.3242045,0.0084 c 0.147526,-0.07629 0.496597,-0.777682 0.645187,-1.296383 0.329806,-1.151307 0.219689,-2.391803 -0.305446,-3.440904 -0.184629,-0.368848 -0.248822,-0.470404 -0.327772,-0.518539 -0.18336,-0.111799 -0.436523,0.04679 -0.405629,0.254086 0.0059,0.04035 0.06686,0.165785 0.137369,0.283207 0.774604,1.289974 0.771167,2.899052 -0.009,4.18873 -0.06509,0.10759 -0.122313,0.226708 -0.128334,0.267114 -0.02997,0.200988 0.207017,0.359162 0.393575,0.262689 z M 8.3321186,15.747646 c 0.078734,-0.07873 0.067353,-0.171238 -0.053078,-0.431459 -0.3326639,-0.718779 -0.3254619,-1.533923 0.020048,-2.268523 0.098191,-0.208768 0.1125672,-0.290318 0.063528,-0.360333 -0.034979,-0.04994 -0.1239208,-0.09953 -0.1785039,-0.09953 -0.081488,0 -0.1676535,0.06139 -0.2240651,0.159632 -0.3548004,0.617925 -0.450095,1.522371 -0.2423425,2.300081 0.092459,0.346109 0.2429656,0.669282 0.3401793,0.730443 0.080472,0.05062 0.2073251,0.0366 0.2742397,-0.03032 z m 12.1968864,0.02169 c 0.119975,-0.07944 0.288288,-0.478974 0.380641,-0.903538 0.05851,-0.26894 0.07301,-0.848492 0.02881,-1.149989 -0.04206,-0.286845 -0.143112,-0.615116 -0.26469,-0.859886 -0.08425,-0.169626 -0.109721,-0.204765 -0.170911,-0.235784 -0.13322,-0.06753 -0.283415,0.0021 -0.309997,0.143865 -0.01015,0.05411 0.0047,0.103454 0.08241,0.274017 0.201853,0.443029 0.261435,0.713243 0.260428,1.18109 -0.0011,0.469252 -0.06808,0.770558 -0.25793,1.158791 -0.102691,0.209992 -0.108245,0.237242 -0.06527,0.320347 0.05836,0.112867 0.204023,0.145578 0.316524,0.07108 z M 14.60559,14.88638 c 0.146136,-0.07149 0.263627,-0.192969 0.337199,-0.348624 0.05501,-0.116357 0.06065,-0.145737 0.06287,-0.326877 l 0.0024,-0.199029 0.08355,-0.07764 c 0.04595,-0.04271 0.501459,-0.445387 1.012237,-0.894848 0.979919,-0.862284 0.988815,-0.871559 0.988815,-1.03087 0,-0.219415 -0.266566,-0.387004 -0.451792,-0.284042 -0.03305,0.01837 -0.268387,0.217986 -0.523002,0.443603 -0.254617,0.225617 -0.706904,0.625645 -1.005083,0.888952 L 14.570636,13.535743 14.448,13.506413 c -0.100771,-0.02412 -0.148817,-0.02558 -0.269483,-0.0082 l -0.146852,0.02114 -0.749668,-0.737667 c -0.412313,-0.405715 -0.775555,-0.756265 -0.807198,-0.778995 -0.163508,-0.117443 -0.415779,-0.04864 -0.504101,0.13749 -0.04003,0.08436 -0.04187,0.254418 -0.0035,0.326673 0.0158,0.02978 0.377024,0.401845 0.802708,0.826793 l 0.773969,0.772641 v 0.115327 c 0,0.296534 0.145471,0.565361 0.367792,0.67967 0.149094,0.07666 0.225219,0.09258 0.408744,0.0855 0.145066,-0.0056 0.194552,-0.01607 0.285156,-0.06041 z m -0.481668,-0.512725 c -0.187757,-0.187755 0.04656,-0.474559 0.274268,-0.335721 0.06992,0.04263 0.09969,0.103369 0.09969,0.203406 0,0.05126 -0.01558,0.08301 -0.06487,0.132315 -0.05538,0.05538 -0.078,0.06487 -0.154542,0.06487 -0.07654,0 -0.09917,-0.0096 -0.154547,-0.06487 z m -3.270636,0.0887 c 0.191258,-0.0961 0.203916,-0.376806 0.02126,-0.471265 -0.07819,-0.04043 -0.60795,-0.04267 -0.684881,-0.0028 -0.1951815,0.100933 -0.1950815,0.380936 1.18e-4,0.469551 0.114902,0.05215 0.562638,0.05525 0.663462,0.0046 z m 7.498549,0.0026 c 0.200176,-0.08009 0.222753,-0.338208 0.04024,-0.460132 -0.06015,-0.04019 -0.08532,-0.04331 -0.349154,-0.04331 -0.317901,0 -0.371586,0.01481 -0.435835,0.120173 -0.02301,0.0377 -0.03728,0.09551 -0.03731,0.151047 -4.1e-5,0.07347 0.01077,0.102326 0.0591,0.157365 0.0772,0.08794 0.132501,0.101859 0.412657,0.103925 0.173462,0.0013 0.253087,-0.0061 0.310291,-0.02908 z m -3.911191,-3.496069 c 0.09594,-0.06881 0.114418,-0.14017 0.114418,-0.441715 0,-0.22535 -0.0061,-0.288966 -0.03336,-0.343053 -0.07124,-0.141778 -0.250086,-0.1952275 -0.382712,-0.114369 -0.104733,0.06386 -0.121506,0.133762 -0.11461,0.477627 0.0055,0.269341 0.01024,0.307235 0.04556,0.355293 0.0875,0.119123 0.255185,0.149076 0.370698,0.06622 z"
       id="path1-7"
       sodipodi:nodetypes="csssssssssssssssscscssssssssscsssscssscssscsscssssssssssscccsscsssssssssssssssssssssssssssssscsssssssssccssscsscsssssscsscssssscsssccsssssscsccccsssssssssscssss" /></g></svg>
